<svg xmlns="http://www.w3.org/2000/svg" viewBox="0 0 1400 900" font-family="Arial, sans-serif">
  <defs>
    <marker id="arrow" markerWidth="8" markerHeight="6" refX="8" refY="3" orient="auto">
      <polygon points="0 0, 8 3, 0 6" fill="#64748b"/>
    </marker>
    <marker id="arrow-green" markerWidth="8" markerHeight="6" refX="8" refY="3" orient="auto">
      <polygon points="0 0, 8 3, 0 6" fill="#1a472a"/>
    </marker>
    <filter id="shadow" x="-5%" y="-5%" width="110%" height="110%">
      <feDropShadow dx="2" dy="2" stdDeviation="3" flood-color="#00000022"/>
    </filter>
  </defs>

  <!-- Background -->
  <rect width="1400" height="900" fill="#f8fafc"/>
  
  <!-- Title -->
  <rect x="20" y="20" width="1360" height="56" rx="8" fill="#1a472a"/>
  <text x="40" y="52" fill="white" font-size="20" font-weight="bold">🌱 WF01 — Entrada WhatsApp + Monitor Proativo</text>
  <text x="1200" y="52" fill="#a8e6c3" font-size="13">133 nós · ATIVO</text>

  <!-- MODO REATIVO - Label -->
  <rect x="20" y="94" width="180" height="28" rx="4" fill="#0ea5e9" opacity="0.15"/>
  <text x="30" y="113" fill="#0369a1" font-size="13" font-weight="bold">MODO REATIVO</text>

  <!-- MODO PROATIVO - Label -->
  <rect x="20" y="460" width="200" height="28" rx="4" fill="#f0a500" opacity="0.15"/>
  <text x="30" y="479" fill="#b45309" font-size="13" font-weight="bold">MODO PROATIVO (8h)</text>

  <!-- ─── REATIVO NODES ─── -->
  <!-- Webhook -->
  <rect x="20" y="140" width="160" height="68" rx="8" fill="white" stroke="#0ea5e9" stroke-width="2" filter="url(#shadow)"/>
  <rect x="20" y="140" width="160" height="8" rx="8" fill="#0ea5e9"/>
  <text x="100" y="176" text-anchor="middle" fill="#0f172a" font-size="12" font-weight="bold">⚡ Webhook</text>
  <text x="100" y="196" text-anchor="middle" fill="#64748b" font-size="11">agro-e-entrada</text>

  <!-- Normalizador -->
  <rect x="220" y="140" width="170" height="68" rx="8" fill="white" stroke="#0ea5e9" stroke-width="2" filter="url(#shadow)"/>
  <rect x="220" y="140" width="170" height="8" rx="8" fill="#0ea5e9"/>
  <text x="305" y="176" text-anchor="middle" fill="#0f172a" font-size="12" font-weight="bold">🔄 Normalizador</text>
  <text x="305" y="196" text-anchor="middle" fill="#64748b" font-size="11">Universal (Evolution/UAZAPI)</text>

  <!-- Verifica Status IA -->
  <rect x="430" y="140" width="160" height="68" rx="8" fill="white" stroke="#0ea5e9" stroke-width="2" filter="url(#shadow)"/>
  <rect x="430" y="140" width="160" height="8" rx="8" fill="#8b5cf6"/>
  <text x="510" y="176" text-anchor="middle" fill="#0f172a" font-size="12" font-weight="bold">🗄️ Verifica Status IA</text>
  <text x="510" y="196" text-anchor="middle" fill="#64748b" font-size="11">Supabase agroe_contexto</text>

  <!-- Redis -->
  <rect x="630" y="140" width="160" height="68" rx="8" fill="white" stroke="#ef4444" stroke-width="2" filter="url(#shadow)"/>
  <rect x="630" y="140" width="160" height="8" rx="8" fill="#ef4444"/>
  <text x="710" y="176" text-anchor="middle" fill="#0f172a" font-size="12" font-weight="bold">⚡ Redis</text>
  <text x="710" y="196" text-anchor="middle" fill="#64748b" font-size="11">Sessão ativa (TTL 1h)</text>

  <!-- acionaMultiagentes -->
  <rect x="830" y="128" width="170" height="88" rx="8" fill="white" stroke="#1a472a" stroke-width="3" filter="url(#shadow)"/>
  <rect x="830" y="128" width="170" height="8" rx="8" fill="#1a472a"/>
  <text x="915" y="166" text-anchor="middle" fill="#0f172a" font-size="12" font-weight="bold">🚀 Aciona</text>
  <text x="915" y="184" text-anchor="middle" fill="#0f172a" font-size="12" font-weight="bold">Multiagentes</text>
  <text x="915" y="204" text-anchor="middle" fill="#64748b" font-size="11">→ WF02</text>

  <!-- Sanitizador -->
  <rect x="1040" y="140" width="160" height="68" rx="8" fill="white" stroke="#f59e0b" stroke-width="2" filter="url(#shadow)"/>
  <rect x="1040" y="140" width="160" height="8" rx="8" fill="#f59e0b"/>
  <text x="1120" y="176" text-anchor="middle" fill="#0f172a" font-size="12" font-weight="bold">🛡️ Sanitizador</text>
  <text x="1120" y="196" text-anchor="middle" fill="#64748b" font-size="11">Anti JSON Schema leak</text>

  <!-- Envia WA -->
  <rect x="1240" y="140" width="140" height="68" rx="8" fill="white" stroke="#25D366" stroke-width="2" filter="url(#shadow)"/>
  <rect x="1240" y="140" width="140" height="8" rx="8" fill="#25D366"/>
  <text x="1310" y="176" text-anchor="middle" fill="#0f172a" font-size="12" font-weight="bold">📱 Envia WA</text>
  <text x="1310" y="196" text-anchor="middle" fill="#64748b" font-size="11">Evolution API</text>

  <!-- Arrows reativo -->
  <line x1="180" y1="174" x2="218" y2="174" stroke="#64748b" stroke-width="2" marker-end="url(#arrow)"/>
  <line x1="390" y1="174" x2="428" y2="174" stroke="#64748b" stroke-width="2" marker-end="url(#arrow)"/>
  <line x1="590" y1="174" x2="628" y2="174" stroke="#64748b" stroke-width="2" marker-end="url(#arrow)"/>
  <line x1="790" y1="174" x2="828" y2="174" stroke="#1a472a" stroke-width="3" marker-end="url(#arrow-green)"/>
  <line x1="1000" y1="174" x2="1038" y2="174" stroke="#64748b" stroke-width="2" marker-end="url(#arrow)"/>
  <line x1="1200" y1="174" x2="1238" y2="174" stroke="#64748b" stroke-width="2" marker-end="url(#arrow)"/>

  <!-- ─── DIVISOR ─── -->
  <line x1="20" y1="440" x2="1380" y2="440" stroke="#e2e8f0" stroke-width="2" stroke-dasharray="8,4"/>

  <!-- ─── PROATIVO NODES ─── -->
  <!-- Schedule -->
  <rect x="20" y="500" width="160" height="68" rx="8" fill="white" stroke="#f0a500" stroke-width="2" filter="url(#shadow)"/>
  <rect x="20" y="500" width="160" height="8" rx="8" fill="#f0a500"/>
  <text x="100" y="536" text-anchor="middle" fill="#0f172a" font-size="12" font-weight="bold">⏰ Schedule</text>
  <text x="100" y="556" text-anchor="middle" fill="#64748b" font-size="11">0 8 * * 1-6</text>

  <!-- normalizaEntradaProativa -->
  <rect x="220" y="500" width="180" height="68" rx="8" fill="white" stroke="#f0a500" stroke-width="2" filter="url(#shadow)"/>
  <rect x="220" y="500" width="180" height="8" rx="8" fill="#f0a500"/>
  <text x="310" y="530" text-anchor="middle" fill="#0f172a" font-size="12" font-weight="bold">🔧 Normaliza</text>
  <text x="310" y="548" text-anchor="middle" fill="#0f172a" font-size="12" font-weight="bold">Entrada Proativa</text>
  <text x="310" y="566" text-anchor="middle" fill="#64748b" font-size="11">tipo='proativo'</text>

  <!-- 7 fontes em paralelo -->
  <!-- Postgres -->
  <rect x="450" y="500" width="155" height="58" rx="8" fill="white" stroke="#3b82f6" stroke-width="1.5" filter="url(#shadow)"/>
  <text x="527" y="528" text-anchor="middle" fill="#0f172a" font-size="11" font-weight="bold">🗄️ Postgres</text>
  <text x="527" y="546" text-anchor="middle" fill="#64748b" font-size="10">operacoes + documentos</text>

  <!-- Clientes -->
  <rect x="450" y="570" width="155" height="58" rx="8" fill="white" stroke="#8b5cf6" stroke-width="1.5" filter="url(#shadow)"/>
  <text x="527" y="598" text-anchor="middle" fill="#0f172a" font-size="11" font-weight="bold">🗄️ Supabase</text>
  <text x="527" y="616" text-anchor="middle" fill="#64748b" font-size="10">clientes + hist. comercial</text>

  <!-- Catálogo -->
  <rect x="450" y="640" width="155" height="58" rx="8" fill="white" stroke="#8b5cf6" stroke-width="1.5" filter="url(#shadow)"/>
  <text x="527" y="668" text-anchor="middle" fill="#0f172a" font-size="11" font-weight="bold">🗄️ Supabase</text>
  <text x="527" y="686" text-anchor="middle" fill="#64748b" font-size="10">catálogo + regiões</text>

  <!-- Open-Meteo -->
  <rect x="450" y="710" width="155" height="58" rx="8" fill="white" stroke="#0ea5e9" stroke-width="1.5" filter="url(#shadow)"/>
  <text x="527" y="738" text-anchor="middle" fill="#0f172a" font-size="11" font-weight="bold">🌤️ Open-Meteo</text>
  <text x="527" y="756" text-anchor="middle" fill="#64748b" font-size="10">clima por GPS (5 regiões)</text>

  <!-- AwesomeAPI -->
  <rect x="450" y="780" width="155" height="58" rx="8" fill="white" stroke="#10b981" stroke-width="1.5" filter="url(#shadow)"/>
  <text x="527" y="808" text-anchor="middle" fill="#0f172a" font-size="11" font-weight="bold">💱 AwesomeAPI</text>
  <text x="527" y="826" text-anchor="middle" fill="#64748b" font-size="10">USD/BRL tempo real</text>

  <!-- Consolida -->
  <rect x="660" y="630" width="170" height="78" rx="8" fill="white" stroke="#1a472a" stroke-width="2" filter="url(#shadow)"/>
  <rect x="660" y="630" width="170" height="8" rx="8" fill="#1a472a"/>
  <text x="745" y="667" text-anchor="middle" fill="#0f172a" font-size="12" font-weight="bold">⚙️ Consolida</text>
  <text x="745" y="684" text-anchor="middle" fill="#0f172a" font-size="12" font-weight="bold">Dados Proativos</text>
  <text x="745" y="700" text-anchor="middle" fill="#64748b" font-size="11">Code node</text>

  <!-- → WF02 Proativo -->
  <rect x="880" y="630" width="170" height="78" rx="8" fill="#1a472a" filter="url(#shadow)"/>
  <text x="965" y="667" text-anchor="middle" fill="white" font-size="13" font-weight="bold">🚀 Aciona</text>
  <text x="965" y="684" text-anchor="middle" fill="white" font-size="13" font-weight="bold">Multiagentes</text>
  <text x="965" y="700" text-anchor="middle" fill="#a8e6c3" font-size="11">→ WF02 (proativo)</text>

  <!-- Arrows proativo -->
  <line x1="180" y1="534" x2="218" y2="534" stroke="#f0a500" stroke-width="2" marker-end="url(#arrow)"/>
  <!-- Branching lines from normalizaEntradaProativa to 5 sources -->
  <line x1="400" y1="534" x2="448" y2="529" stroke="#94a3b8" stroke-width="1.5" marker-end="url(#arrow)"/>
  <line x1="400" y1="534" x2="448" y2="599" stroke="#94a3b8" stroke-width="1.5" marker-end="url(#arrow)"/>
  <line x1="400" y1="534" x2="448" y2="669" stroke="#94a3b8" stroke-width="1.5" marker-end="url(#arrow)"/>
  <line x1="400" y1="534" x2="448" y2="739" stroke="#94a3b8" stroke-width="1.5" marker-end="url(#arrow)"/>
  <line x1="400" y1="534" x2="448" y2="809" stroke="#94a3b8" stroke-width="1.5" marker-end="url(#arrow)"/>
  <!-- Sources to Consolida -->
  <line x1="605" y1="529" x2="658" y2="660" stroke="#94a3b8" stroke-width="1.5" marker-end="url(#arrow)"/>
  <line x1="605" y1="599" x2="658" y2="665" stroke="#94a3b8" stroke-width="1.5" marker-end="url(#arrow)"/>
  <line x1="605" y1="669" x2="658" y2="669" stroke="#94a3b8" stroke-width="1.5" marker-end="url(#arrow)"/>
  <line x1="605" y1="739" x2="658" y2="675" stroke="#94a3b8" stroke-width="1.5" marker-end="url(#arrow)"/>
  <line x1="605" y1="809" x2="658" y2="680" stroke="#94a3b8" stroke-width="1.5" marker-end="url(#arrow)"/>
  <!-- Consolida to WF02 -->
  <line x1="830" y1="669" x2="878" y2="669" stroke="#1a472a" stroke-width="3" marker-end="url(#arrow-green)"/>

  <!-- Legend -->
  <rect x="1100" y="500" width="280" height="180" rx="8" fill="white" stroke="#e2e8f0" stroke-width="1"/>
  <text x="1240" y="525" text-anchor="middle" fill="#0f172a" font-size="13" font-weight="bold">Legenda</text>
  <rect x="1115" y="540" width="14" height="14" rx="2" fill="#0ea5e9"/>
  <text x="1137" y="553" fill="#334155" font-size="12">Nós reativos (WhatsApp)</text>
  <rect x="1115" y="564" width="14" height="14" rx="2" fill="#f0a500"/>
  <text x="1137" y="577" fill="#334155" font-size="12">Nós proativos (Schedule)</text>
  <rect x="1115" y="588" width="14" height="14" rx="2" fill="#1a472a"/>
  <text x="1137" y="601" fill="#334155" font-size="12">Acionamento WF02</text>
  <rect x="1115" y="612" width="14" height="14" rx="2" fill="#ef4444"/>
  <text x="1137" y="625" fill="#334155" font-size="12">Memória Redis</text>
  <rect x="1115" y="636" width="14" height="14" rx="2" fill="#f59e0b"/>
  <text x="1137" y="649" fill="#334155" font-size="12">Sanitizador resposta</text>
  <rect x="1115" y="660" width="14" height="14" rx="2" fill="#25D366"/>
  <text x="1137" y="673" fill="#334155" font-size="12">Envio WhatsApp</text>

  <!-- Footer -->
  <text x="700" y="882" text-anchor="middle" fill="#94a3b8" font-size="12">© 2026 Andre Fernandes · agro-e v1.0 · WF01 de 6 workflows</text>
</svg>
