<svg xmlns="http://www.w3.org/2000/svg" viewBox="0 0 1300 500" font-family="Arial, sans-serif">
  <defs>
    <marker id="arr" markerWidth="8" markerHeight="6" refX="8" refY="3" orient="auto"><polygon points="0 0,8 3,0 6" fill="#64748b"/></marker>
    <marker id="arr-g" markerWidth="8" markerHeight="6" refX="8" refY="3" orient="auto"><polygon points="0 0,8 3,0 6" fill="#1a472a"/></marker>
    <filter id="sh"><feDropShadow dx="2" dy="2" stdDeviation="3" flood-color="#00000020"/></filter>
  </defs>
  <rect width="1300" height="500" fill="#f8fafc"/>
  <rect x="20" y="16" width="1260" height="52" rx="8" fill="#1a472a"/>
  <text x="40" y="48" fill="white" font-size="19" font-weight="bold">📋 WF04 — Monitor de Vencimentos Documentais</text>
  <text x="1100" y="48" fill="#a8e6c3" font-size="13">48 nós · ATIVO</text>

  <!-- TURNO 7h -->
  <rect x="20" y="86" width="120" height="28" rx="4" fill="#ef4444" opacity="0.15"/>
  <text x="30" y="105" fill="#b91c1c" font-size="13" font-weight="bold">TURNO 7h</text>

  <rect x="20" y="124" width="155" height="70" rx="8" fill="white" stroke="#ef4444" stroke-width="2" filter="url(#sh)"/>
  <rect x="20" y="124" width="155" height="8" rx="8" fill="#ef4444"/>
  <text x="97" y="158" text-anchor="middle" font-size="12" font-weight="bold" fill="#0f172a">⏰ Schedule 7h</text>
  <text x="97" y="176" text-anchor="middle" font-size="11" fill="#64748b">Documentos URGENTES</text>

  <rect x="220" y="124" width="180" height="70" rx="8" fill="white" stroke="#ef4444" stroke-width="2" filter="url(#sh)"/>
  <rect x="220" y="124" width="180" height="8" rx="8" fill="#ef4444"/>
  <text x="310" y="152" text-anchor="middle" font-size="12" font-weight="bold" fill="#0f172a">🔍 Busca Urgentes</text>
  <text x="310" y="170" text-anchor="middle" font-size="11" fill="#64748b">Vencidos + ≤2 dias</text>
  <text x="310" y="184" text-anchor="middle" font-size="10" fill="#94a3b8">PostgreSQL WHERE dias ≤ 2</text>

  <!-- TURNO 12h -->
  <rect x="20" y="230" width="140" height="28" rx="4" fill="#f59e0b" opacity="0.15"/>
  <text x="30" y="249" fill="#b45309" font-size="13" font-weight="bold">TURNO 12h</text>

  <rect x="20" y="268" width="155" height="70" rx="8" fill="white" stroke="#f59e0b" stroke-width="2" filter="url(#sh)"/>
  <rect x="20" y="268" width="155" height="8" rx="8" fill="#f59e0b"/>
  <text x="97" y="302" text-anchor="middle" font-size="12" font-weight="bold" fill="#0f172a">⏰ Schedule 12h</text>
  <text x="97" y="320" text-anchor="middle" font-size="11" fill="#64748b">Documentos PRÓXIMOS</text>

  <rect x="220" y="268" width="180" height="70" rx="8" fill="white" stroke="#f59e0b" stroke-width="2" filter="url(#sh)"/>
  <rect x="220" y="268" width="180" height="8" rx="8" fill="#f59e0b"/>
  <text x="310" y="296" text-anchor="middle" font-size="12" font-weight="bold" fill="#0f172a">🔍 Busca Próximos</text>
  <text x="310" y="314" text-anchor="middle" font-size="11" fill="#64748b">Vencendo em 3–14 dias</text>
  <text x="310" y="328" text-anchor="middle" font-size="10" fill="#94a3b8">PostgreSQL WHERE dias BETWEEN 3 AND 14</text>

  <!-- Shared nodes -->
  <rect x="450" y="196" width="180" height="70" rx="8" fill="white" stroke="#8b5cf6" stroke-width="2" filter="url(#sh)"/>
  <rect x="450" y="196" width="180" height="8" rx="8" fill="#8b5cf6"/>
  <text x="540" y="226" text-anchor="middle" font-size="12" font-weight="bold" fill="#0f172a">🔄 Merge Resultados</text>
  <text x="540" y="244" text-anchor="middle" font-size="11" fill="#64748b">Merge Node</text>
  <text x="540" y="258" text-anchor="middle" font-size="10" fill="#94a3b8">Unifica os dois turnos</text>

  <rect x="680" y="196" width="200" height="70" rx="8" fill="white" stroke="#1a472a" stroke-width="2" filter="url(#sh)"/>
  <rect x="680" y="196" width="200" height="8" rx="8" fill="#1a472a"/>
  <text x="780" y="226" text-anchor="middle" font-size="12" font-weight="bold" fill="#0f172a">🤖 Agente IA</text>
  <text x="780" y="244" text-anchor="middle" font-size="11" fill="#64748b">Gera msg humanizada</text>
  <text x="780" y="258" text-anchor="middle" font-size="10" fill="#94a3b8">GPT-4.1-mini por documento</text>

  <rect x="930" y="196" width="180" height="70" rx="8" fill="white" stroke="#0ea5e9" stroke-width="2" filter="url(#sh)"/>
  <rect x="930" y="196" width="180" height="8" rx="8" fill="#0ea5e9"/>
  <text x="1020" y="226" text-anchor="middle" font-size="12" font-weight="bold" fill="#0f172a">🔁 Loop</text>
  <text x="1020" y="244" text-anchor="middle" font-size="11" fill="#64748b">Por documento</text>
  <text x="1020" y="258" text-anchor="middle" font-size="10" fill="#94a3b8">Split In Batches</text>

  <rect x="1160" y="196" width="120" height="70" rx="8" fill="white" stroke="#25D366" stroke-width="2" filter="url(#sh)"/>
  <rect x="1160" y="196" width="120" height="8" rx="8" fill="#25D366"/>
  <text x="1220" y="230" text-anchor="middle" font-size="12" font-weight="bold" fill="#0f172a">📱 Envia</text>
  <text x="1220" y="248" text-anchor="middle" font-size="11" fill="#64748b">WhatsApp</text>
  <text x="1220" y="262" text-anchor="middle" font-size="10" fill="#64748b">Responsável</text>

  <!-- exemplo msg box -->
  <rect x="450" y="320" width="830" height="90" rx="8" fill="white" stroke="#e2e8f0" stroke-width="1.5" filter="url(#sh)"/>
  <text x="470" y="344" font-size="12" font-weight="bold" fill="#1a472a">💬 Exemplo de mensagem gerada pelo agente:</text>
  <text x="470" y="364" font-size="12" fill="#334155">🟠 Fazenda Santa Rita (Uberlândia/MG) — Licença Ambiental SUPRAM-MG vence em 3 dias (28/05/2026).</text>
  <text x="470" y="382" font-size="12" fill="#334155">Ação necessária: protocolar renovação imediatamente. Contato: SUPRAM-MG (31) 3916-1400.</text>
  <text x="470" y="400" font-size="11" fill="#94a3b8">*agro-e Monitoramento 🌱*</text>

  <!-- arrows -->
  <line x1="175" y1="159" x2="218" y2="159" stroke="#64748b" stroke-width="2" marker-end="url(#arr)"/>
  <line x1="400" y1="159" x2="448" y2="225" stroke="#64748b" stroke-width="2" marker-end="url(#arr)"/>
  <line x1="175" y1="303" x2="218" y2="303" stroke="#64748b" stroke-width="2" marker-end="url(#arr)"/>
  <line x1="400" y1="303" x2="448" y2="245" stroke="#64748b" stroke-width="2" marker-end="url(#arr)"/>
  <line x1="630" y1="231" x2="678" y2="231" stroke="#64748b" stroke-width="2" marker-end="url(#arr)"/>
  <line x1="880" y1="231" x2="928" y2="231" stroke="#64748b" stroke-width="2" marker-end="url(#arr)"/>
  <line x1="1110" y1="231" x2="1158" y2="231" stroke="#1a472a" stroke-width="2" marker-end="url(#arr-g)"/>

  <text x="650" y="482" text-anchor="middle" fill="#94a3b8" font-size="12">© 2026 Andre Fernandes · agro-e v1.0 · WF04 de 6 workflows</text>
</svg>