<svg xmlns="http://www.w3.org/2000/svg" viewBox="0 0 1200 440" font-family="Arial, sans-serif">
  <defs>
    <marker id="arr" markerWidth="8" markerHeight="6" refX="8" refY="3" orient="auto"><polygon points="0 0,8 3,0 6" fill="#64748b"/></marker>
    <filter id="sh"><feDropShadow dx="2" dy="2" stdDeviation="3" flood-color="#00000020"/></filter>
  </defs>
  <rect width="1200" height="440" fill="#f8fafc"/>
  <rect x="20" y="16" width="1160" height="52" rx="8" fill="#0369a1"/>
  <text x="40" y="48" fill="white" font-size="19" font-weight="bold">📊 WF05 — Relatório de Gestão</text>
  <text x="980" y="48" fill="#bae6fd" font-size="13">8 nós · Schedule 9h · ATIVO</text>

  <!-- Schedule + Webhook triggers -->
  <rect x="20" y="100" width="155" height="70" rx="8" fill="white" stroke="#0ea5e9" stroke-width="2" filter="url(#sh)"/>
  <rect x="20" y="100" width="155" height="8" rx="8" fill="#0ea5e9"/>
  <text x="97" y="134" text-anchor="middle" font-size="12" font-weight="bold" fill="#0f172a">⏰ Schedule 9h</text>
  <text x="97" y="152" text-anchor="middle" font-size="11" fill="#64748b">Diário seg–sex</text>

  <rect x="20" y="192" width="155" height="70" rx="8" fill="white" stroke="#8b5cf6" stroke-width="2" filter="url(#sh)"/>
  <rect x="20" y="192" width="155" height="8" rx="8" fill="#8b5cf6"/>
  <text x="97" y="226" text-anchor="middle" font-size="12" font-weight="bold" fill="#0f172a">⚡ Webhook</text>
  <text x="97" y="244" text-anchor="middle" font-size="11" fill="#64748b">agroe-relatorio-gestao</text>

  <!-- Busca Supabase -->
  <rect x="225" y="146" width="175" height="70" rx="8" fill="white" stroke="#8b5cf6" stroke-width="2" filter="url(#sh)"/>
  <rect x="225" y="146" width="175" height="8" rx="8" fill="#8b5cf6"/>
  <text x="312" y="176" text-anchor="middle" font-size="12" font-weight="bold" fill="#0f172a">🗄️ Busca Pendentes</text>
  <text x="312" y="194" text-anchor="middle" font-size="11" fill="#64748b">Supabase WHERE</text>
  <text x="312" y="208" text-anchor="middle" font-size="10" fill="#94a3b8">status = 'pendente'</text>

  <!-- Constrói HTML -->
  <rect x="450" y="146" width="200" height="70" rx="8" fill="white" stroke="#1a472a" stroke-width="2" filter="url(#sh)"/>
  <rect x="450" y="146" width="200" height="8" rx="8" fill="#1a472a"/>
  <text x="550" y="176" text-anchor="middle" font-size="12" font-weight="bold" fill="#0f172a">🏗️ Constrói Email HTML</text>
  <text x="550" y="194" text-anchor="middle" font-size="11" fill="#64748b">Code node — dashboard completo</text>
  <text x="550" y="208" text-anchor="middle" font-size="10" fill="#94a3b8">Cards + Tabela + SLA + WhatsApp msg</text>

  <!-- Split outputs -->
  <rect x="700" y="100" width="160" height="70" rx="8" fill="white" stroke="#dc2626" stroke-width="2" filter="url(#sh)"/>
  <rect x="700" y="100" width="160" height="8" rx="8" fill="#dc2626"/>
  <text x="780" y="130" text-anchor="middle" font-size="12" font-weight="bold" fill="#0f172a">📧 Envia Email</text>
  <text x="780" y="148" text-anchor="middle" font-size="11" fill="#64748b">Gmail OAuth2</text>
  <text x="780" y="162" text-anchor="middle" font-size="10" fill="#94a3b8">HTML completo</text>

  <rect x="700" y="192" width="160" height="70" rx="8" fill="white" stroke="#25D366" stroke-width="2" filter="url(#sh)"/>
  <rect x="700" y="192" width="160" height="8" rx="8" fill="#25D366"/>
  <text x="780" y="222" text-anchor="middle" font-size="12" font-weight="bold" fill="#0f172a">📱 Envia WhatsApp</text>
  <text x="780" y="240" text-anchor="middle" font-size="11" fill="#64748b">Flash executivo</text>
  <text x="780" y="254" text-anchor="middle" font-size="10" fill="#94a3b8">5 linhas — gestor</text>

  <!-- Log -->
  <rect x="920" y="146" width="180" height="70" rx="8" fill="white" stroke="#64748b" stroke-width="1.5" filter="url(#sh)"/>
  <text x="1010" y="176" text-anchor="middle" font-size="12" font-weight="bold" fill="#0f172a">📋 Registra Envio</text>
  <text x="1010" y="194" text-anchor="middle" font-size="11" fill="#64748b">agroe_historico_execucoes</text>
  <text x="1010" y="208" text-anchor="middle" font-size="10" fill="#94a3b8">Audit trail completo</text>

  <!-- resultado real -->
  <rect x="20" y="320" width="1160" height="80" rx="8" fill="white" stroke="#1a472a" stroke-width="1.5"/>
  <text x="40" y="344" font-size="12" font-weight="bold" fill="#1a472a">✅ Resultado real — email recebido e avaliado pelo usuário:</text>
  <text x="40" y="364" font-size="12" fill="#334155">"ficou excelente, altíssimo nível"</text>
  <text x="40" y="382" font-size="11" fill="#64748b">Email HTML inclui: cards de resumo executivo · alertas SLA vencido · cartões detalhados · tabela completa · rastreabilidade pendente→resolvido</text>

  <!-- arrows -->
  <line x1="175" y1="135" x2="223" y2="175" stroke="#64748b" stroke-width="1.5" marker-end="url(#arr)"/>
  <line x1="175" y1="227" x2="223" y2="195" stroke="#64748b" stroke-width="1.5" marker-end="url(#arr)"/>
  <line x1="400" y1="181" x2="448" y2="181" stroke="#64748b" stroke-width="2" marker-end="url(#arr)"/>
  <line x1="650" y1="168" x2="698" y2="140" stroke="#64748b" stroke-width="1.5" marker-end="url(#arr)"/>
  <line x1="650" y1="194" x2="698" y2="222" stroke="#64748b" stroke-width="1.5" marker-end="url(#arr)"/>
  <line x1="860" y1="140" x2="918" y2="170" stroke="#64748b" stroke-width="1.5" marker-end="url(#arr)"/>
  <line x1="860" y1="230" x2="918" y2="196" stroke="#64748b" stroke-width="1.5" marker-end="url(#arr)"/>

  <text x="600" y="422" text-anchor="middle" fill="#94a3b8" font-size="12">© 2026 Andre Fernandes · agro-e v1.0 · WF05 de 6 workflows</text>
</svg>